<svg class="icon" style="width: 1em; height: 1em; vertical-align: middle; fill: currentcolor; overflow: hidden; --darkreader-inline-fill: currentcolor;" viewBox="0 0 1024 1024" version="1.1" xmlns="http://www.w3.org/2000/svg" p-id="2099" data-darkreader-inline-fill=""><path d="M565.29 511.59l363.88-363.88c18.75-18.75 18.75-49.14 0-67.88-18.75-18.75-49.14-18.75-67.88 0L497.41 443.71 133.53 79.83c-18.75-18.75-49.14-18.75-67.88 0-18.75 18.74-18.75 49.14 0 67.88l363.88 363.88L65.64 875.47c-18.74 18.75-18.74 49.14 0 67.88 9.37 9.37 21.66 14.06 33.94 14.06s24.57-4.69 33.94-14.06L497.4 579.47l363.88 363.88c9.37 9.37 21.66 14.06 33.94 14.06s24.57-4.69 33.94-14.06c18.75-18.75 18.75-49.14 0-67.88L565.29 511.59z" fill="#f9605f" p-id="2100"></path></svg>